{"accessors":[{"bufferView":0,"componentType":5123,"count":60,"max":[39],"min":[0],"type":"SCALAR"},{"bufferView":1,"componentType":5126,"count":40,"max":[0.5,0.9267787933349609,0.5],"min":[-0.5,-0.5,-0.5],"type":"VEC3"},{"bufferView":2,"componentType":5126,"count":40,"max":[1.0,1.0,1.0],"min":[-1.0,-1.0,-1.0],"type":"VEC3"},{"bufferView":3,"componentType":5126,"count":40,"max":[0.875,1.0],"min":[0.125,0.0],"type":"VEC2"}],"asset":{"copyright":null,"generator":"Verge3D for Maya v4.11.0","version":"2.0"},"bufferViews":[{"buffer":0,"byteLength":120,"byteOffset":0,"target":34963},{"buffer":0,"byteLength":480,"byteOffset":120,"target":34962},{"buffer":0,"byteLength":480,"byteOffset":600,"target":34962},{"buffer":0,"byteLength":320,"byteOffset":1080,"target":34962}],"buffers":[{"byteLength":1400,"uri":"a.bin"}],"cameras":[{"extensions":{"S8S_v3d_camera":{"controls":"ORBIT","enablePan":true,"moveSpeed":1.0,"orbitMaxDistance":1000.0,"orbitMaxPolarAngle":3.141592653589793,"orbitMaxZoom":100.0,"orbitMinDistance":0.0,"orbitMinPolarAngle":0.0,"orbitMinZoom":0.009999999776482582,"orbitTarget":[4.2099657093785936e-13,2.4513724383723456e-13,2.446931546273845e-13],"rotateSpeed":1.0,"viewportFitInitialAspect":1.5,"viewportFitType":"HORIZONTAL"}},"name":"perspShape","perspective":{"aspectRatio":1.5,"yfov":0.6605947096585074,"zfar":10000.0,"znear":0.1},"type":"perspective"}],"extensions":{"S8S_v3d_lights":{"lights":[{"color":[1,1,1],"intensity":2.5,"name":"__DEFAULT__","profile":"maya","type":"directional"}]}},"extensionsUsed":["S8S_v3d_materials","S8S_v3d_lights","S8S_v3d_camera","S8S_v3d_mesh","S8S_v3d_node","S8S_v3d_scene"],"materials":[{"extensions":{"S8S_v3d_materials":{"gtaoVisible":true,"nodeGraph":{"edges":[{"fromNode":1,"fromOutput":0,"toInput":0,"toNode":0}],"nodes":[{"inputs":[[0.0,0.0,0.0,1],[0,0,0,0],[0,0,0]],"is_active_output":true,"name":"initialParticleSE","outputs":[],"type":"SHADING_ENGINE_MY"},{"inputs":[1.0,[0.4000000059604645,0.4000000059604645,0.4000000059604645],0.0,0.0,1.0,[1.0,1.0,1.0],0.5,1.5,0.0,[1.0,1.0,1.0],0.0,[0.0,0.0,0.0],0.0,[1.0,1.0,1.0],0.5,0.0,[1.0,1.0,1.0],0.0,0.0,[1.0,1.0,1.0],1.0,[1.0,1.0,1.0]],"name":"openPBR_shader1","outputs":[[0.0,0.0,0.0,0]],"thinWalled":false,"type":"OPENPBR_SURFACE_MY"}]},"profile":"maya"}},"name":"openPBR_shader1"},{"extensions":{"S8S_v3d_materials":{"nodeGraph":{"edges":[{"fromNode":0,"fromOutput":0,"toInput":0,"toNode":1}],"nodes":[{"inputs":[[0.35593602641242716,0.35593602641242716,0.35593602641242716],[0,0,0],[0,0,0],[0,0,0],[0,0,0],[0,0,0]],"name":"aiRaySwitchColor","outputs":[[0,0,0],0],"type":"RAY_SWITCH_AR"},{"inputs":[[0,0,0],1],"is_active_output":true,"name":"aiSkyDomeLightShapeColor","outputs":[],"type":"SKYDOME_LIGHT_AR"}]},"profile":"maya"}},"name":"Verge3D_Environment"}],"meshes":[{"extensions":{"S8S_v3d_mesh":{}},"name":"pCubeShape1","primitives":[{"attributes":{"NORMAL":2,"POSITION":1,"TEXCOORD_0":3},"indices":0,"material":0,"mode":4}]}],"nodes":[{"extensions":{"S8S_v3d_node":{"frustumCulling":true,"hidden":false,"hidpiCompositing":false,"renderOrder":0,"useCastShadows":true,"useShadows":true}},"mesh":0,"name":"pCube1","rotation":[0.0,0.0,0.0,1.0],"scale":[2.1586548522065616,2.1586548522065616,2.1586548522065616],"translation":[0.0,0.7441374509451271,0.0]},{"camera":0,"children":[2],"extensions":{"S8S_v3d_node":{"hidden":true,"hidpiCompositing":false}},"name":"persp","rotation":[-0.3679434814453143,0.5180107283722962,0.26245153469283194,0.7262242571619885],"scale":[1.0,1.0,0.9999999999999999],"translation":[8.53473518287003,12.305363110631284,2.9387449955771157]},{"extensions":{"S8S_v3d_lights":{"light":0}},"name":"__DEFAULT_LIGHT__","rotation":[-0.13052619222005157,-0.0,-0.0,0.9914448613738104],"translation":[8.53473518287003,12.305363110631284,2.9387449955771157]}],"scene":0,"scenes":[{"extensions":{"S8S_v3d_scene":{"aaMethod":"AUTO","iblEnvironmentMode":"PMREM","physicallyCorrectLights":true,"shadowMap":{"esmDistanceScale":2.5,"renderReverseSided":false,"renderSingleSided":true,"type":"PCFPOISSON"},"unitsScaleFactor":1.0,"useHDR":false,"useOIT":false,"worldMaterial":1}},"extras":{"animFrameRate":24.0,"coordSystem":"Y_UP_RIGHT"},"name":"Scene","nodes":[0,1]}]}